# xmcd CD database file
#
# Track frame offsets:
#	150
#	9300
#	26098
#	42225
#	55993
#	85706
#	102174
#	115169
#	125850
#	152901
#	168467
#	187365
#	215659
#	231269
#	252481
#	272125
#	301773
#
# Disc length: 4366 seconds
#
# Revision: 0
# Processed by: cddbd v1.5.1PL2 Copyright (c) Steve Scherf et al.
# Submitted via: CDex 1.51
#
DISCID=f2110c11
DTITLE=Various Artist - so far songs
DYEAR=2000
DGENRE=JPop
TTITLE0=村上ゴンゾ - -introduction- 水車
TTITLE1=ラブクライ - コスモス・デッド
TTITLE2=渚にて - あなたを捨てる
TTITLE3=浜田真理子 - 港の見える丘
TTITLE4=ぱぱぼっくす - もうすぐ(remix)
TTITLE5=スパロウズ・スクーター - cyan
TTITLE6=タナカ - オブラブ
TTITLE7=ボルゾイ - スプリング(ハズカム)
TTITLE8=シネルパ - 砂の人
TTITLE9=フリーボ - 彼女は太陽(live version)
TTITLE10=朝生愛 - 波間の愛好者
TTITLE11=ヒヤシンス - ひとつの音
TTITLE12=田中亜矢 - サヨナラの砂
TTITLE13=コモンビル - 悲しいだけ
TTITLE14=ふちがみとふなと - ママの山羊は10匹(できたてversion)
TTITLE15=OKミュージック・ボール - サマーワルツ(live version)
TTITLE16=山本精一 with RASHINBAN - 不在のうた
EXTD=YEAR: 2000
EXTT0=
EXTT1=
EXTT2=
EXTT3=
EXTT4=
EXTT5=
EXTT6=
EXTT7=
EXTT8=
EXTT9=
EXTT10=
EXTT11=
EXTT12=
EXTT13=
EXTT14=
EXTT15=
EXTT16=
PLAYORDER=
